<?xml version="1.0" encoding="utf-8"?>
<!-- Generator: Adobe Illustrator 26.3.1, SVG Export Plug-In . SVG Version: 6.00 Build 0)  -->
<svg version="1.1" id="Layer_1" xmlns="http://www.w3.org/2000/svg" xmlns:xlink="http://www.w3.org/1999/xlink" x="0px" y="0px"
	 viewBox="0 0 700 700" style="enable-background:new 0 0 700 700;" xml:space="preserve">
<path d="M253.1,156.6c0-35.5-29-64.6-64.6-64.6c-35.5,0-64.6,29.1-64.6,64.6c0,35.6,29.1,64.6,64.6,64.6
	C224.1,221.2,253.1,192.2,253.1,156.6L253.1,156.6z"/>
<path d="M473.9,135.1c0-47.5-38.6-86.2-86.2-86.2c-47.5,0-86.2,38.7-86.2,86.2s38.7,86.2,86.2,86.2
	C435.3,221.2,473.9,182.5,473.9,135.1L473.9,135.1z"/>
<path d="M522.3,271.6v179.2l86.2,60.3V211.3L522.3,271.6z"/>
<path d="M188.5,221.2H91.5v280h409.2v-280L188.5,221.2z"/>
</svg>
